<svg
    viewBox="0 0 10.583333 13.2291675"
    version="1.1"
    x="0px"
    y="0px"
    className="fill-red-500 h-10"
>
    <g>
        <path
            d="m 1.4849224,1.0115647 c -0.3781451,0 -0.69143031,0.313385 -0.69143031,0.69143 v 4.16202 0.703316 c 0,0.378047 0.31328521,0.691432 0.69143031,0.691432 h 2.6013913 v 0.929659 H 2.840396 a 0.26460995,0.26460995 0 0 0 -0.2656178,0.263549 v 0.855244 A 0.26460995,0.26460995 0 0 0 2.840396,9.5717667 H 7.7444904 A 0.26460995,0.26460995 0 0 0 8.0085551,9.3082147 V 8.4529707 A 0.26460995,0.26460995 0 0 0 7.7444904,8.1894217 H 6.4985701 v -0.929659 h 2.6013913 c 0.3781451,0 0.6898798,-0.313385 0.6898798,-0.691432 v -4.162537 -0.702799 c 0,-0.378045 -0.3117347,-0.69143 -0.6898798,-0.69143 z m 0,0.529166 h 7.615039 c 0.093559,0 0.1601972,0.06764 0.1601972,0.162264 v 0.702799 4.162537 c 0,0.09463 -0.066641,0.161747 -0.1601972,0.161747 h -7.615039 c -0.093559,0 -0.1622637,-0.06712 -0.1622637,-0.161747 v -0.703316 -4.16202 c 0,-0.0059 5.292e-4,-0.01188 0.00106,-0.01757 0.00788,-0.08539 0.073517,-0.144696 0.1612291,-0.144696 z m 2.1853975,1.099675 a 0.26458349,0.26458349 0 0 0 -0.1813851,0.08785 l -1.0821035,1.232485 a 0.26460995,0.26460995 0 0 0 0,0.349332 l 1.0821035,1.232482 a 0.26458349,0.26458349 0 0 0 0.3731048,0.02379 0.26458349,0.26458349 0 0 0 0.025321,-0.373105 L 2.9577017,4.1343857 3.8873602,3.0781187 a 0.26458349,0.26458349 0 0 0 -0.025321,-0.373105 0.26458349,0.26458349 0 0 0 -0.1917197,-0.0646 z m 3.2421776,0 a 0.26458349,0.26458349 0 0 0 -0.1912011,0.06459 0.26458349,0.26458349 0 0 0 -0.023257,0.373105 l 0.9296585,1.056267 -0.9296585,1.058849 a 0.26458349,0.26458349 0 0 0 0.023257,0.373105 0.26458349,0.26458349 0 0 0 0.3731022,-0.02379 l 1.0836566,-1.232482 a 0.26460995,0.26460995 0 0 0 0,-0.349332 L 7.0943986,2.7282417 a 0.26458349,0.26458349 0 0 0 -0.1819011,-0.08785 z m -0.9234566,0.06356 a 0.26458349,0.26458349 0 0 0 -0.2444301,0.131773 l -1.3632232,2.33216 a 0.26458349,0.26458349 0 0 0 0.095602,0.361217 0.26458349,0.26458349 0 0 0 0.3612171,-0.09405 L 6.2019484,3.1034267 A 0.26458349,0.26458349 0 0 0 6.107897,2.7401427 0.26458349,0.26458349 0 0 0 5.9890409,2.7039687 Z m -1.373042,4.555794 h 1.3534046 v 0.929659 H 4.6159989 Z m -1.512054,1.458826 H 4.350381 6.2329523 7.4788725 v 0.324011 H 3.1039449 Z"
            stroke-width="10"
            stroke-linecap="round"
            stroke-linejoin="round"
        />
    </g>
</svg>