<svg
    xmlns="http://www.w3.org/2000/svg"
    data-name="Layer 1"
    viewBox="0 0 64 80"
    x="0px"
    y="0px"
    className="fill-red-500 h-9"
>
    <path d="M62.55,36.36v18a4.49,4.49,0,0,1-4.49,4.49H5.94a4.49,4.49,0,0,1-4.49-4.49v-18H24.81a7.22,7.22,0,0,0,14.38,0Z" />
    <path d="M37,28.8v6.91a4.91,4.91,0,0,1,0,.67,5,5,0,0,1-9.92,0,4.91,4.91,0,0,1-.05-.67V28.8a1.26,1.26,0,0,1,1.26-1.26h7.5A1.26,1.26,0,0,1,37,28.8Z" />
    <path d="M58.06,17.86H47V12.4A7.23,7.23,0,0,0,39.8,5.18H24.2A7.23,7.23,0,0,0,17,12.4v5.46h-11a4.48,4.48,0,0,0-4.49,4.48v8.33H24.78V28.86a3.52,3.52,0,0,1,3.52-3.52h7.4a3.52,3.52,0,0,1,3.52,3.52v1.81H62.55V22.34A4.48,4.48,0,0,0,58.06,17.86ZM21.53,12.4A2.68,2.68,0,0,1,24.2,9.73H39.8a2.68,2.68,0,0,1,2.67,2.67v5.46H21.53Z" />
</svg>