<svg xmlns="http://www.w3.org/2000/svg"  className="h-10 fill-red-500" data-name="Layer 1" viewBox="0 0 100 125" x="0px" y="0px"><defs><style>.cls-1{fill-rule:evenodd;}</style></defs><title>a</title><path class="cls-1" d="M64.34,88,66,94.27a1,1,0,0,0,.46.6h0a1,1,0,0,0,.75.1l22.42-6a.94.94,0,0,0,.6-.46h0a1,1,0,0,0,.09-.75l-1.68-6.28a1,1,0,0,0-1.21-.69L65,86.78a1,1,0,0,0-.6.47h0a1,1,0,0,0-.1.75ZM16,79.59,32.54,84l3.64-13.6a4.64,4.64,0,0,0-.48-3.69h0L26,50a3.06,3.06,0,0,0-5.61.75A3,3,0,0,0,20.69,53a.8.8,0,0,1,.08.16l3,5.22a1,1,0,0,1-1.77,1l-5.23-9h0a4.76,4.76,0,0,1-.49-3.72l5-18.71a3.28,3.28,0,0,0-4.8-3.69h0a3.31,3.31,0,0,0-1.54,2l-7.22,27a10.36,10.36,0,0,0,1.07,8.17l8,13.93a1,1,0,0,1,.1.77h0L16,79.59ZM34,94.27a1,1,0,0,1-.46.6h0a1,1,0,0,1-.75.1L10.35,89a.94.94,0,0,1-.6-.46h0a1,1,0,0,1-.09-.75l1.68-6.28a1,1,0,0,1,1.21-.69l22.42,6a1,1,0,0,1,.6.47h0a1,1,0,0,1,.1.75L34,94.27Zm23-78.78a9.81,9.81,0,1,0,0,13.88,9.8,9.8,0,0,0,0-13.88ZM50,10.56A11.87,11.87,0,1,1,38.14,22.43,11.87,11.87,0,0,1,50,10.56ZM37.16,35.28l2.12,3.12a2.79,2.79,0,0,0,2.06,1.21l3.84.33,1.19.54L42,50.12l-3.56-3.84a1,1,0,0,0-.91-.36l-5.49.65,5.08-11.29Zm16.47,5.2L58,50.12l3.56-3.84a1,1,0,0,1,.91-.36l5.49.65L62.84,35.28,60.72,38.4a2.79,2.79,0,0,1-2.06,1.21l-3.84.33-1.19.54Zm-1.84-1.39-1.48.7a.75.75,0,0,1-.62,0c-.71-.34-3.56-1.71-4-1.82s-3.5-.34-4.2-.4a.65.65,0,0,1-.53-.32l-2-3-.41-.48c-.43-.38-2.71-1.88-3.35-2.31a.65.65,0,0,1-.32-.53c-.06-.7-.27-3.73-.4-4.2s-1.53-3.36-1.82-4a.75.75,0,0,1,0-.62c.29-.62,1.71-3.55,1.82-4s.34-3.5.4-4.2a.65.65,0,0,1,.32-.53l3-2L38.6,11h0c.35-.34,2-2.85,2.38-3.42a.65.65,0,0,1,.53-.32c.7-.06,3.73-.27,4.2-.4s3.36-1.53,4-1.82a.75.75,0,0,1,.62,0c.62.29,3.55,1.71,4,1.82s3.5.34,4.2.4a.65.65,0,0,1,.53.32c.39.57,2,3.08,2.38,3.42s2.85,2,3.42,2.38a.65.65,0,0,1,.32.53c.06.7.27,3.73.4,4.2s1.53,3.36,1.82,4a.75.75,0,0,1,0,.62c-.29.62-1.71,3.55-1.82,4s-.34,3.5-.4,4.2a.65.65,0,0,1-.32.53c-.57.39-3.08,2-3.42,2.38s-2,2.85-2.38,3.42a.65.65,0,0,1-.53.32c-.7.06-3.73.27-4.2.4-.29.07-2.23,1-2.5,1.12Zm-1-18.81a1,1,0,0,0,1,.67l2.38.09-1.91,1.49a1,1,0,0,0-.35,1.08h0l.66,2.32-2-1.35a1,1,0,0,0-1.16,0l-2,1.34.66-2.32a1,1,0,0,0-.42-1.13L45.83,21,48.25,21a1,1,0,0,0,.92-.67L50,18l.83,2.27Zm.13-5.6,1.55,4.26,4.53.15a1,1,0,0,1,.58,1.84l-3.56,2.78,1.25,4.36a1,1,0,0,1-1.57,1.12L50,26.66,46.24,29.2a1,1,0,0,1-1.55-1.13l1.25-4.36-3.57-2.79A1,1,0,0,1,43,19.09l4.53-.15L49,14.68a1,1,0,0,1,1.92,0ZM79.23,53.16l-3,5.22a1,1,0,0,0,1.77,1l5.23-9h0a4.76,4.76,0,0,0,.49-3.72l-5-18.71a3.28,3.28,0,0,1,4.8-3.69h0a3.31,3.31,0,0,1,1.54,2l7.22,27a10.36,10.36,0,0,1-1.07,8.17l-8,13.93a1,1,0,0,0-.1.77h0l1,3.54L67.46,84l-3.64-13.6a4.64,4.64,0,0,1,.48-3.69h0L74,50a3.06,3.06,0,0,1,5.61.75A3,3,0,0,1,79.31,53,.8.8,0,0,0,79.23,53.16Z"/></svg>